<svg width="14" height="14" viewBox="0 0 14 14" fill="none" xmlns="http://www.w3.org/2000/svg">
<path fill-rule="evenodd" clip-rule="evenodd" d="M6.78487 0.224248C7.07523 0.519648 7.07115 0.994504 6.77575 1.28487L2.5829 5.40625H12.25C12.6642 5.40625 13 5.74204 13 6.15625C13 6.57046 12.6642 6.90625 12.25 6.90625H2.59051L6.7742 10.9949C7.07044 11.2844 7.0759 11.7592 6.78639 12.0554C6.49688 12.3517 6.02204 12.3571 5.7258 12.0676L0.2258 6.69264C0.0816727 6.55179 0.000292792 6.35886 7.8851e-07 6.15734C-0.000291215 5.95581 0.0805293 5.76265 0.224248 5.62138L5.72425 0.215131C6.01965 -0.0752336 6.4945 -0.0711518 6.78487 0.224248Z" fill="#606367"/>
</svg>
