<svg width="14" height="14" viewBox="0 0 14 14" fill="none" xmlns="http://www.w3.org/2000/svg">
<path fill-rule="evenodd" clip-rule="evenodd" d="M6.21513 0.224248C5.92477 0.519648 5.92885 0.994504 6.22425 1.28487L10.4171 5.40625H0.75C0.335787 5.40625 0 5.74204 0 6.15625C0 6.57046 0.335787 6.90625 0.75 6.90625H10.4095L6.2258 10.9949C5.92956 11.2844 5.9241 11.7592 6.21361 12.0554C6.50312 12.3517 6.97796 12.3571 7.2742 12.0676L12.7742 6.69264C12.9183 6.55179 12.9997 6.35886 13 6.15734C13.0003 5.95581 12.9195 5.76265 12.7758 5.62138L7.27575 0.215131C6.98035 -0.0752336 6.5055 -0.0711518 6.21513 0.224248Z" fill="#BABCBE"/>
</svg>
