<svg width="14" height="14" viewBox="0 0 14 14" fill="none" xmlns="http://www.w3.org/2000/svg">
<path d="M1.5 6.5C1.5 3.73858 3.73858 1.5 6.5 1.5C8.00726 1.5 9.35943 2.1667 10.2768 3.2232L8 5.5H13.5V0L11.3394 2.16063C10.15 0.835118 8.4228 0 6.5 0C2.91015 0 0 2.91015 0 6.5C0 10.0899 2.91015 13 6.5 13C9.07814 13 11.3042 11.499 12.3547 9.3265C12.5351 8.95359 12.3789 8.50512 12.006 8.3248C11.6331 8.14448 11.1847 8.3006 11.0043 8.6735C10.1947 10.3478 8.4812 11.5 6.5 11.5C3.73858 11.5 1.5 9.26142 1.5 6.5Z" fill="#606367"/>
</svg>
